<svg width="192" height="192" viewBox="0 0 192 192" fill="none" xmlns="http://www.w3.org/2000/svg">
<rect width="192" height="192" fill="#F4F4F4"/>
<path d="M94.2115 62.1673L104.753 77.3807C98.5239 81.1341 92.8938 84.8875 87.8626 88.6409C82.9113 92.3145 78.4391 96.1478 74.4461 100.141C70.533 104.054 66.9393 108.247 63.665 112.719H62.9463C59.7519 108.247 56.1582 104.054 52.1652 100.141C48.252 96.1478 43.8198 92.3145 38.8685 88.6409C33.9171 84.8875 28.287 81.1341 21.978 77.3807L32.5196 62.1673C37.6306 65.6013 42.1028 69.195 45.9361 72.9484C49.7694 76.622 53.0037 80.3754 55.6391 84.2087C58.2745 88.042 60.3508 91.7555 61.8682 95.3492C63.4654 98.9429 64.6233 102.257 65.3421 105.292H61.2692C61.9879 102.257 63.1459 98.9429 64.7431 95.3492C66.3403 91.7555 68.4566 88.042 71.092 84.2087C73.7274 80.3754 76.9218 76.622 80.6752 72.9484C84.5085 69.195 89.0206 65.6013 94.2115 62.1673ZM73.4878 32.9385V61.0892C73.4878 67.6377 73.1284 73.8269 72.4097 79.6567C71.6909 85.4865 70.6927 90.9169 69.4149 95.9481L63.3056 106.01L57.1963 95.9481C56.0783 90.9169 55.12 85.4865 54.3214 79.6567C53.5228 73.8269 53.1235 67.6377 53.1235 61.0892V32.9385H73.4878Z" fill="#16A34A"/>
<path d="M100.33 124.371L89.7885 109.158C96.0974 105.325 101.728 101.571 106.679 97.8976C111.63 94.2241 116.062 90.4307 119.976 86.5176C123.969 82.5246 127.602 78.292 130.876 73.8198H131.595C134.869 78.292 138.463 82.5246 142.376 86.5176C146.289 90.4307 150.722 94.2241 155.673 97.8976C160.704 101.571 166.334 105.325 172.563 109.158L162.022 124.371C156.911 120.937 152.439 117.383 148.605 113.71C144.772 109.956 141.538 106.163 138.902 102.33C136.267 98.4966 134.151 94.7831 132.554 91.1894C131.036 87.5957 129.918 84.2815 129.199 81.2468H133.272C132.554 84.2815 131.396 87.5957 129.798 91.1894C128.201 94.7831 126.085 98.4966 123.449 102.33C120.814 106.163 117.58 109.956 113.746 113.71C109.993 117.383 105.521 120.937 100.33 124.371ZM121.054 153.6V125.449C121.054 118.901 121.413 112.712 122.132 106.882C122.93 100.972 123.929 95.5418 125.127 90.5904L131.236 80.5281L137.345 90.5904C138.543 95.5418 139.501 100.972 140.22 106.882C141.019 112.712 141.418 118.901 141.418 125.449V153.6H121.054Z" fill="#6B21A8"/>
</svg>
